<?xml version="1.0" ?><svg enable-background="new -197.826 53.741 456.08 461.394" id="Layer_1" version="1.1" viewBox="-197.826 53.741 456.08 461.394" xml:space="preserve" xmlns="http://www.w3.org/2000/svg" xmlns:xlink="http://www.w3.org/1999/xlink"><g id="Layer_1_1_"/><path d="M250.956,247.214c-1.742-3.578-5.272-5.378-8.465-5.538c-0.278-0.015-0.558-0.017-0.836-0.007  c-5.188,0.175-10.772,0.296-17.579,0.382c-2.484,0.031-4.97,0.101-7.455,0.17c-3.516,0.098-6.841,0.195-10.181,0.18  c-3.063-0.01-6.123-0.128-9.364-0.254c-2.707-0.104-5.507-0.212-8.322-0.253c-2.763-0.04-5.527-0.041-8.293-0.042  c-3.114-0.001-6.334-0.002-9.452-0.065c-2.91-0.059-5.82-0.1-8.73-0.142c-3.021-0.043-6.043-0.086-9.064-0.149  c-3.364-0.07-6.729-0.105-10.094-0.141c-2.584-0.027-5.168-0.054-7.752-0.098c-2.454-0.041-4.907-0.107-7.36-0.172  c-3.437-0.092-6.99-0.187-10.531-0.213c-4.294-0.035-8.607,0.009-12.781,0.049c-1.723,0.017-3.446,0.034-5.168,0.045  c-4.596,0.031-9.206,0.163-13.665,0.29l-4.328,0.12c-2.397,0.062-4.809,0.044-7.359,0.025c-3.371-0.024-6.859-0.051-10.423,0.119  c-1.471-0.004-2.9-0.05-4.408-0.098c-4.347-0.139-8.841-0.28-14.1,0.596c-4.069,0.678-7.305,3.786-8.146,7.824  c-1.241,5.959-1.944,12.391-2.213,20.241c-0.189,5.53-0.069,11.059,0.048,16.405l0.058,2.705c0.024,1.203,0.053,2.408,0.081,3.614  c0.118,4.979,0.229,9.683,0.056,14.391c-0.226,6.132-0.594,11.305-1.657,16.623c-0.561,2.806,0.107,5.718,1.835,7.999  c1.729,2.28,4.351,3.712,7.204,3.932c7.09,0.545,13.591,0.133,20.748-0.417c1.38-0.106,2.763-0.228,4.146-0.35  c4.809-0.425,9.352-0.823,13.614-0.527c1.098,0.148,2.192,0.31,3.286,0.471c4.095,0.603,8.328,1.226,12.876,1.287  c2.477,0.034,4.962,0.031,7.462,0.032c2.608,0,5.229-0.003,7.873,0.039c4.204,0.066,8.734,0.404,13.839,1.032  c4.576,0.876,9.042,1.035,13.365,1.189c1.101,0.039,2.201,0.078,3.3,0.13c0.914,0.044,1.829,0.082,2.745,0.119  c0.788,0.033,1.568,0.065,2.338,0.101c-0.328,1.398-0.741,2.884-1.245,4.483c-1.623,5.147-3.172,9.279-5.459,12.711  c-2.397,3.6-5.827,6.987-9.458,10.575l-0.45,0.445c-3.789,3.744-7.368,7.28-11.185,10.073c-4.292,3.139-8.808,5.751-13.064,8.158  c-2.767,1.563-4.625,4.35-5.007,7.505c-0.281,2.321,0.269,4.635,1.496,6.565c-3.137,2.045-6.664,3.99-11.1,6.122  c-5.24,2.521-9.981,4.374-14.492,5.665c-4.692,1.341-10.135,2.826-15.354,3.462c-5.094,0.622-10.44,0.878-15.901,0.773  c-4.88-0.097-10.603-0.304-16.056-1.103c-3.247-0.476-6.646-1.476-10.244-2.534c-1.76-0.519-3.58-1.054-5.444-1.545  c-1.265-0.334-2.533-0.656-3.8-0.979c-4.144-1.054-8.061-2.05-11.662-3.396c-1.011-0.433-2.022-0.862-3.035-1.292  c-3.639-1.545-7.075-3.004-10.468-4.593c-3.983-1.862-8.105-4.067-12.604-6.742c-3.463-2.058-6.966-4.59-11.021-7.966  c-4.514-3.874-8.758-8.061-12.672-12.009c-4.506-4.545-8.199-8.354-11.304-12.544c-3.719-5.02-6.394-9.303-8.383-13.429  c-0.527-1.521-1.018-2.72-1.457-3.792c-0.432-1.054-0.804-1.965-1.199-3.147c-1.006-3.017-3.386-5.376-6.412-6.354  c-2.552-0.824-5.302-0.572-7.65,0.638c-0.83-1.631-1.647-3.425-2.469-5.419c-1.745-4.225-2.677-9.218-3.413-13.564  c-0.784-4.628-1.541-9.543-1.453-14.298c0.067-3.579,0.802-7.456,1.581-11.56c0.184-0.971,0.368-1.942,0.545-2.914  c0.016-0.089,0.031-0.178,0.045-0.267c0.453-2.944,0.779-5.857,1.095-8.674c0.42-3.752,0.817-7.297,1.478-10.719  c1.256-6.513,2.439-12.377,4.145-18.013c2.014-4.978,4.531-10.099,6.937-14.108c1.63-2.717,1.876-6.045,0.664-8.972  c-1.145-2.764-3.463-4.862-6.306-5.733c-0.128-0.092-0.282-0.221-0.447-0.367c0.468-0.951,0.96-1.833,1.533-2.602  c2.491-2.665,3.914-5.532,5.071-7.864c0.722-1.454,1.346-2.712,2.133-3.772c2.592-3.362,5.51-6.424,8.6-9.665l1.257-1.321  c2.5-2.632,5.339-5.08,8.345-7.671c0.902-0.778,1.806-1.557,2.706-2.345c1.423-1.247,2.804-2.518,4.139-3.748  c1.98-1.824,3.872-3.565,5.826-5.169c1.595-0.403,3.036-1.109,4.312-2.114c4.117-2.681,8.778-5.246,14.228-7.832  c5.221-2.477,10.882-4.361,15.732-5.878c5.155-1.613,10.656-2.915,16.348-3.869l2.263-0.383c5.068-0.863,9.855-1.679,14.466-1.827  c3.63-0.111,7.507,0.359,11.617,0.861c1.739,0.213,3.477,0.424,5.213,0.598c5.5,0.548,10.93,1.458,16.597,2.779  c1.456,0.339,2.92,0.66,4.384,0.979c4.287,0.937,8.337,1.821,11.984,3.19c4.581,1.718,9.451,3.978,15.326,7.113  c4.214,2.249,8.724,5.131,14.19,9.07c5.428,3.913,9.424,7.162,12.956,10.533c1.954,1.867,4.586,2.858,7.283,2.759  c2.701-0.103,5.246-1.294,7.055-3.303c2.512-2.792,5.174-5.4,7.991-8.162c0.993-0.973,1.987-1.947,2.982-2.937  c2.062-2.051,4.206-4.03,6.477-6.125c1.722-1.588,3.502-3.23,5.26-4.922c2.436-2.346,4.733-4.767,6.956-7.109  c1.563-1.646,3.039-3.202,4.562-4.734c3.442-3.469,7.088-7.396,11.472-12.36c3.71-4.201,7.226-8.56,10.748-13.327  c0.73-0.989,1.269-2.097,1.593-3.267c0.461-1.084,0.916-2.63,0.916-4.582c0-3.966-2.344-7.557-5.974-9.154  c-0.255-0.112-0.513-0.212-0.772-0.302c-3.895-3.417-7.837-6.732-12.173-9.843c-4.112-2.951-8.969-6.491-13.9-10.426  c-2.432-2.116-5.147-2.673-7.061-2.791c-0.513-0.321-1.024-0.643-1.536-0.964c-4.085-2.564-8.31-5.217-12.805-7.544  c-4.163-2.155-8.339-3.825-12.377-5.44c-1.614-0.646-3.226-1.29-4.82-1.961c-1.23-0.519-2.457-1.046-3.682-1.572  c-4.378-1.882-8.904-3.829-13.691-5.406c-6.428-2.117-12.321-3.814-18.018-5.188c-4.736-1.143-9.405-1.816-13.92-2.467  c-1.519-0.219-3.036-0.438-4.552-0.674l-0.271-0.042c-5.905-0.923-12.012-1.878-18.291-2.344c-1.503-0.111-3.007-0.241-4.514-0.37  c-4.568-0.391-9.31-0.783-14.191-0.77c-4.396,0.024-8.586,0.511-12.638,0.981c-2.084,0.242-4.054,0.471-6.007,0.634  c-0.035,0.003-0.069,0.006-0.104,0.009c-1.405,0.132-2.81,0.25-4.213,0.368c-4.522,0.381-9.199,0.774-13.946,1.61  c-5.572,0.98-10.915,2.383-16.081,3.739l-1.714,0.449c-6.11,1.598-11.982,3.585-17.417,5.495c-1.656,0.582-3.335,1.127-5.113,1.704  c-3.952,1.283-8.038,2.61-12.129,4.438c-5.088,2.275-10.442,4.965-16.367,8.226c-3.96,2.181-7.532,4.66-10.985,7.058  c-1.435,0.997-2.871,1.994-4.325,2.959l-1.717,1.136c-4.372,2.891-8.894,5.879-13.264,9.328c-3.896,3.074-7.413,6.395-10.815,9.607  c-0.919,0.868-1.84,1.737-2.767,2.6c-1.376,1.281-2.831,2.541-4.372,3.875c-3.012,2.608-6.127,5.306-9.067,8.521  c-3.071,3.358-5.728,6.891-8.297,10.308c-1.008,1.341-2.018,2.685-3.051,4.011c-3.341,4.291-6.873,8.923-10.17,13.836  c-0.235,0.229-0.471,0.458-0.707,0.686c-0.544,0.526-1.088,1.053-1.628,1.593c-1.969,1.97-3.028,4.672-2.921,7.455  c0.084,2.186,0.89,4.261,2.253,5.932c-1.968,3.635-3.925,7.437-5.91,11.49c-3.03,6.188-5.462,12.322-8.065,19.077  c-0.159,0.24-0.395,0.578-0.583,0.845c-1.109,1.583-2.784,3.976-3.868,7.229c-0.046,0.137-0.088,0.275-0.128,0.414  c-1.124,3.933-2.44,7.668-3.834,11.624c-0.953,2.705-1.939,5.502-2.851,8.351c-2.354,7.352-4.205,14.463-5.66,21.74  c-0.129,0.646-0.194,1.302-0.194,1.96c0,1.435,0.094,2.519,0.17,3.39c0.025,0.292,0.047,0.54,0.063,0.775  c-1.357,6.667-2.104,13.222-2.791,20.907l-0.296,3.362c-0.519,5.932-1.008,11.537-1.812,17.167  c-0.033,0.233-0.059,0.468-0.075,0.702c-0.529,7.413-0.296,14.929,0.714,22.978l0.395,3.159c0.736,5.886,1.497,11.973,2.354,17.977  c0.026,0.183,0.057,0.365,0.094,0.546c0.863,4.316,2.164,8.118,3.421,11.795c0.391,1.142,0.78,2.278,1.149,3.419  c0.443,1.369,0.846,2.75,1.25,4.131c1.026,3.501,2.086,7.122,3.745,10.852c1.56,3.512,3.31,6.613,5.002,9.612  c0.763,1.352,1.526,2.703,2.26,4.081c0.557,1.046,1.1,2.109,1.65,3.187c1.656,3.239,3.533,6.911,6.007,10.623  c0.366,0.549,0.784,1.06,1.25,1.525c0.705,0.704,1.391,1.313,1.996,1.849c0.458,0.407,1.063,0.943,1.347,1.253  c0.333,0.88,0.787,1.707,1.349,2.457c0.004,0.008,0.008,0.016,0.013,0.023c2.123,4.052,4.753,6.027,7.27,6.892  c2.765,4.079,5.376,7.654,8.049,11.027c3.669,4.631,7.791,9.277,12.601,14.205c0.766,0.784,1.528,1.575,2.292,2.367  c3.509,3.639,7.138,7.401,11.372,10.902c3.674,3.037,7.569,5.517,11.336,7.915c1.45,0.923,2.909,1.852,4.355,2.814  c2.043,1.362,4.029,2.989,6.132,4.713c3.471,2.843,7.058,5.782,11.482,8.039l0.16,0.091c5.106,2.918,10.386,5.935,15.881,8.653  c4.164,2.061,8.365,3.767,12.428,5.418c1.539,0.625,3.078,1.25,4.607,1.892c1.17,0.492,2.336,0.989,3.503,1.487  c4.401,1.876,8.952,3.815,13.707,5.461l2.328,0.809c4.954,1.725,10.077,3.508,15.375,4.948c4.662,1.265,9.277,2.117,13.74,2.942  c1.508,0.279,3.015,0.558,4.52,0.852l1.828,0.358c5.359,1.053,10.901,2.141,16.593,2.803c5.5,0.639,12.022,1.321,18.694,1.542  c3.195,0.106,6.69,0.206,10.328,0.206c2.774,0,5.633-0.058,8.503-0.217c5.544-0.307,10.895-1.125,16.069-1.917l2.664-0.405  c5.812-0.871,11.867-2.109,18.514-3.786c5.788-1.46,11.276-3.461,16.584-5.396l3.39-1.23c4.61-1.666,9.362-3.384,14.128-5.592  c1.774-0.01,4.363-0.348,6.809-2.07c1.947-1.097,3.91-2.13,5.977-3.219c4.917-2.59,10.002-5.269,15.258-9.022  c0.448-0.32,0.869-0.677,1.259-1.066c0.234-0.235,0.586-0.537,0.992-0.888c0.222-0.189,0.463-0.397,0.718-0.622  c4.228-2.175,7.431-4.992,10.294-7.511c0.573-0.504,1.144-1.007,1.719-1.498c1.687-1.44,3.442-2.888,5.198-4.336  c0.748-0.617,1.509-1.247,2.268-1.877c2.44-0.094,4.844-1.067,6.688-2.911c1.406-1.407,2.814-2.763,4.213-4.109  c2.916-2.809,5.932-5.713,8.879-9.005c3.061-3.415,5.759-6.962,8.367-10.392c1.134-1.49,2.266-2.98,3.423-4.448  c1.05-1.332,2.117-2.649,3.184-3.967c2.838-3.503,5.771-7.125,8.459-11.09c0.683-1.007,1.371-2.012,2.061-3.016  c2.84-4.14,5.775-8.421,8.389-13.035c3.235-5.713,6.025-11.662,8.559-17.24c2.138-4.709,3.716-9.471,5.242-14.075  c0.447-1.348,0.895-2.697,1.355-4.043c0.029-0.085,0.058-0.171,0.084-0.258c0.554-1.769,1.136-3.524,1.717-5.277  c1.188-3.588,2.418-7.298,3.431-11.164c0.344-1.312,0.697-2.622,1.052-3.933c1.126-4.165,2.289-8.471,3.166-12.964  c1.082-5.542,1.986-11.38,2.688-17.354c0.021-0.181,0.037-0.362,0.049-0.544c0.189-3.031,0.223-6.036,0.255-8.941  c0.029-2.607,0.057-5.07,0.188-7.507c0.101-1.854,0.215-3.713,0.33-5.571c0.22-3.57,0.448-7.262,0.573-10.954  c0.059-1.724,0.133-3.444,0.206-5.158c0.162-3.765,0.329-7.657,0.329-11.526C258.254,258.591,254.531,252.166,250.956,247.214z   M-132.762,153.084c1.102-1.416,2.18-2.848,3.255-4.278c2.391-3.179,4.648-6.182,7.071-8.831c2.154-2.355,4.702-4.563,7.4-6.899  c1.605-1.39,3.266-2.828,4.905-4.354c0.962-0.896,1.917-1.797,2.871-2.697c3.227-3.046,6.275-5.924,9.474-8.448  c3.711-2.928,7.691-5.559,11.904-8.345l1.744-1.154c1.573-1.043,3.125-2.12,4.676-3.197c3.174-2.204,6.172-4.286,9.222-5.965  c5.436-2.992,10.304-5.441,14.884-7.488c3.118-1.394,6.53-2.501,10.143-3.675c1.811-0.588,3.684-1.196,5.566-1.857  c5.033-1.769,10.437-3.6,15.846-5.015l1.733-0.454c4.994-1.311,9.711-2.549,14.469-3.386c3.858-0.679,7.89-1.018,12.158-1.377  c1.449-0.122,2.899-0.244,4.349-0.38c2.261-0.189,4.469-0.446,6.606-0.694c3.675-0.427,7.146-0.83,10.439-0.848  c3.969-0.032,8.063,0.328,12.376,0.697c1.581,0.135,3.159,0.27,4.737,0.388c5.473,0.406,10.919,1.257,16.685,2.159l0.271,0.042  c1.593,0.249,3.189,0.479,4.786,0.71c4.247,0.612,8.259,1.191,12.086,2.114c5.162,1.245,10.543,2.796,16.45,4.742  c3.952,1.302,7.885,2.993,12.048,4.783c1.271,0.546,2.542,1.093,3.817,1.63c1.706,0.719,3.431,1.409,5.159,2.1  c3.759,1.503,7.31,2.923,10.607,4.631c3.759,1.946,7.454,4.266,11.366,6.722c0.939,0.59,1.881,1.181,2.825,1.768  c2.026,1.504,4.177,2.032,5.853,2.199c4.594,3.595,9,6.802,12.794,9.525c2.382,1.708,4.695,3.552,6.986,5.479  c-1.528,1.887-3.074,3.714-4.656,5.506c-4.121,4.666-7.513,8.323-10.674,11.508c-1.681,1.692-3.304,3.403-4.874,5.057  c-2.166,2.282-4.211,4.437-6.322,6.469c-1.604,1.544-3.229,3.044-4.949,4.631c-2.308,2.128-4.693,4.33-7.021,6.646  c-0.958,0.953-1.918,1.894-2.876,2.832c-0.666,0.653-1.338,1.312-2.013,1.977c-2.277-1.832-4.769-3.719-7.58-5.745  c-6.212-4.476-11.445-7.81-16.469-10.49c-6.667-3.558-12.297-6.161-17.717-8.194c-4.996-1.875-9.95-2.957-14.741-4.003  c-1.372-0.3-2.743-0.599-4.109-0.917c-6.429-1.499-12.873-2.576-19.154-3.203c-1.588-0.158-3.179-0.354-4.771-0.548  c-4.68-0.573-9.516-1.168-14.684-0.999c-5.979,0.191-11.676,1.162-17.185,2.101l-2.21,0.375c-6.592,1.104-12.989,2.621-19.013,4.505  c-5.511,1.724-11.999,3.891-18.335,6.897c-5.983,2.838-11.202,5.696-15.905,8.712c-1.943,0.421-3.667,1.278-5.15,2.563  c-3.042,2.368-5.707,4.822-8.287,7.198c-1.254,1.156-2.5,2.304-3.768,3.415c-0.86,0.753-1.723,1.498-2.585,2.241  c-3.246,2.797-6.602,5.69-9.789,9.047l-1.231,1.293c-3.329,3.492-6.771,7.103-10.021,11.328c-0.024,0.032-0.049,0.063-0.073,0.096  c-1.901,2.535-3.108,4.967-4.078,6.922c-0.675,1.359-1.312,2.643-1.802,3.133c-0.261,0.261-0.507,0.536-0.737,0.824  c-0.328,0.409-0.63,0.823-0.928,1.237c-1.395-1.358-2.758-2.708-4.072-4.079c-1.318-1.375-2.634-2.789-3.942-4.208  c-0.232-0.29-0.475-0.571-0.737-0.834c-0.137-0.137-0.274-0.28-0.411-0.418c-0.583-0.636-1.172-1.275-1.747-1.903  c-1.898-2.076-3.861-4.224-5.851-6.331c-1.907-2.019-3.753-4.064-5.708-6.229c-2.258-2.502-4.593-5.089-7.027-7.627  c-2.632-2.746-5.357-5.349-7.992-7.866c-1.211-1.157-2.442-2.342-3.664-3.532C-137.675,159.452-135.172,156.179-132.762,153.084z   M-166.151,366.065c-1.117-2.513-1.948-5.35-2.828-8.354c-0.442-1.51-0.9-3.071-1.413-4.658c-0.403-1.247-0.829-2.491-1.256-3.742  c-1.064-3.11-2.071-6.054-2.681-8.986c-0.816-5.737-1.553-11.633-2.266-17.337l-0.396-3.169c-0.829-6.61-1.036-12.739-0.632-18.727  c0.851-6.05,1.377-12.066,1.886-17.89l0.292-3.323c0.663-7.42,1.372-13.611,2.68-19.71c0.147-0.689,0.222-1.392,0.222-2.096  c0-1.435-0.094-2.519-0.17-3.39c-0.026-0.302-0.048-0.557-0.064-0.799c1.271-6.152,2.869-12.203,4.872-18.46  c0.824-2.573,1.719-5.113,2.666-7.801c1.399-3.97,2.844-8.071,4.114-12.469c0.2-0.492,0.705-1.212,1.237-1.973  c0.705-1.006,1.503-2.146,2.209-3.558c0.144-0.288,0.273-0.582,0.389-0.882c2.531-6.582,4.853-12.49,7.628-18.158  c0.869-1.775,1.731-3.487,2.591-5.165c1.545,1.586,3.173,3.169,4.946,4.723c2.043,2.321,4.209,4.422,6.309,6.46  c1.314,1.275,2.556,2.479,3.751,3.718l1.746,1.81c2.48,2.572,5.036,5.224,7.629,7.836c0.191,0.327,0.382,0.655,0.573,0.982  c2.59,4.446,5.761,9.887,11.266,13.768c0.196,0.28,0.42,0.612,0.607,0.888c0.588,0.872,1.305,1.934,2.203,3.044  c0.659,3.601,3.267,6.589,6.831,7.715c-0.878,1.921-1.719,3.862-2.485,5.777c-0.102,0.254-0.193,0.512-0.273,0.773  c-2.064,6.71-3.389,13.252-4.786,20.496c-0.81,4.198-1.271,8.308-1.716,12.282c-0.301,2.688-0.585,5.23-0.966,7.725  c-0.16,0.876-0.326,1.753-0.493,2.629c-0.899,4.74-1.829,9.643-1.927,14.913c-0.121,6.479,0.829,12.693,1.729,18.01  c0.918,5.421,2.11,11.719,4.646,17.857c1.374,3.328,2.772,6.289,4.251,8.977c-2.106,1.836-4.236,3.744-6.31,5.799  c-0.636,0.63-1.242,1.27-1.861,1.907c-1.411,1.275-2.809,2.55-4.185,3.809l-2.13,1.949c-2.922,2.665-5.609,5.451-8.208,8.145  c-1.796,1.863-3.494,3.622-5.238,5.317c-1.893,1.84-3.956,3.612-6.14,5.49c-2.604,2.237-5.295,4.551-7.889,7.149  c-2.141,2.144-4.089,4.31-5.971,6.425c-0.649-0.636-1.278-1.202-1.828-1.69c-0.155-0.137-0.31-0.272-0.462-0.409  c-1.565-2.473-2.875-5.034-4.252-7.729c-0.601-1.176-1.196-2.338-1.804-3.48c-0.812-1.525-1.654-3.02-2.497-4.513  C-163.536,371.263-164.979,368.704-166.151,366.065z M154.913,455.486c-0.65,0.556-1.295,1.122-1.941,1.69  c-2.456,2.161-4.578,4.028-6.844,5.035c-1.12,0.499-2.14,1.199-3.008,2.066c-0.234,0.235-0.586,0.537-0.992,0.888  c-0.41,0.353-0.89,0.765-1.4,1.239c-3.975,2.771-8.065,4.927-12.387,7.202c-1.767,0.931-3.58,1.886-5.419,2.902  c-1.649,0.04-3.906,0.381-6.097,1.77c-4.075,1.915-8.356,3.462-12.873,5.095l-3.442,1.249c-5.057,1.844-9.833,3.585-14.627,4.794  c-6.004,1.515-11.429,2.627-16.586,3.399l-2.726,0.414c-4.921,0.754-9.569,1.465-14.146,1.719  c-5.818,0.319-11.86,0.163-17.065-0.009c-5.945-0.197-11.954-0.829-17.047-1.42c-4.915-0.572-9.837-1.538-15.048-2.562l-1.845-0.361  c-1.57-0.308-3.146-0.599-4.722-0.891c-4.252-0.786-8.269-1.528-12.134-2.577c-4.622-1.256-9.197-2.849-14.041-4.534l-2.363-0.821  c-4.096-1.417-8.131-3.138-12.403-4.959c-1.198-0.511-2.397-1.021-3.602-1.527c-1.603-0.674-3.213-1.328-4.825-1.982  c-3.899-1.584-7.582-3.081-11.087-4.814c-4.96-2.454-9.753-5.193-14.827-8.093l-0.381-0.218c-0.161-0.092-0.324-0.179-0.489-0.262  c-2.547-1.273-5.205-3.451-8.019-5.757c-2.385-1.953-4.851-3.974-7.715-5.883c-1.564-1.042-3.14-2.047-4.707-3.044  c-3.401-2.166-6.615-4.211-9.332-6.458c-3.365-2.782-6.452-5.983-9.721-9.372c-0.792-0.822-1.584-1.643-2.377-2.455  c-4.323-4.428-7.998-8.566-11.235-12.654c-1.756-2.216-3.495-4.551-5.292-7.109c0.563-0.526,1.126-1.052,1.681-1.572  c1.247-1.171,2.491-2.34,3.752-3.48c3.853-3.486,7.497-7.099,11.02-10.591l1.615-1.6c1.729-1.712,3.562-3.369,5.501-5.123  c2.342-2.118,4.763-4.309,7.111-6.703c1.873-1.91,3.677-3.853,5.423-5.729c1.433-1.541,2.816-3.008,4.201-4.444  c2.305-2.079,4.589-4.094,6.927-6.027c1.345-1.111,2.746-2.162,4.198-3.197c2.33,4.39,5.223,8.883,8.928,13.884  c4.207,5.676,9.176,10.689,13.169,14.718c4.226,4.262,8.836,8.807,13.911,13.156c0.035,0.03,0.07,0.061,0.106,0.09  c4.911,4.093,9.251,7.22,13.661,9.84c5.07,3.015,9.765,5.522,14.348,7.665c3.718,1.74,7.484,3.34,11.126,4.887  c1.063,0.451,2.125,0.902,3.185,1.356c0.132,0.056,0.265,0.109,0.399,0.16c4.709,1.782,9.434,2.983,14.002,4.145  c1.209,0.308,2.42,0.615,3.628,0.935c1.59,0.419,3.196,0.892,4.897,1.392c4.105,1.209,8.351,2.458,12.992,3.138  c6.548,0.96,13.056,1.2,18.557,1.31c6.397,0.128,12.696-0.182,18.721-0.917c6.659-0.812,13.005-2.534,18.432-4.086  c5.612-1.606,11.39-3.854,17.659-6.869c6.517-3.132,11.708-6.123,16.322-9.407c0.247-0.168,0.481-0.338,0.714-0.509  c1.651,1.691,3.262,3.532,4.954,5.477c1.871,2.153,3.807,4.38,5.95,6.558c1.859,1.89,3.732,3.773,5.612,5.666  c2.181,2.195,4.372,4.4,6.566,6.637c2.265,2.308,4.611,4.562,6.881,6.74c1.847,1.773,3.757,3.607,5.587,5.438  c0.261,0.261,0.536,0.507,0.824,0.737c0.954,0.763,1.874,1.51,2.78,2.249c0.039,0.038,0.078,0.075,0.116,0.113  C156.696,453.977,155.796,454.732,154.913,455.486z M237.943,276.668c-0.076,1.775-0.152,3.556-0.213,5.339  c-0.116,3.414-0.335,6.965-0.547,10.399c-0.118,1.91-0.236,3.82-0.339,5.725c-0.155,2.863-0.187,5.659-0.216,8.363  c-0.03,2.678-0.059,5.212-0.202,7.65c-0.638,5.377-1.452,10.617-2.421,15.579c-0.741,3.795-1.763,7.575-2.845,11.577  c-0.367,1.361-0.735,2.722-1.092,4.085c-0.851,3.249-1.928,6.499-3.067,9.939c-0.603,1.817-1.205,3.637-1.78,5.47  c-0.468,1.367-0.922,2.738-1.376,4.107c-1.425,4.298-2.771,8.357-4.469,12.099c-2.341,5.156-4.9,10.62-7.751,15.652  c-2.189,3.868-4.759,7.613-7.479,11.578c-0.71,1.035-1.419,2.069-2.122,3.107c-2.21,3.26-4.753,6.399-7.445,9.724  c-1.123,1.387-2.246,2.773-3.352,4.176c-1.228,1.558-2.43,3.138-3.633,4.72c-2.479,3.258-4.819,6.336-7.345,9.154  c-1.857,2.073-3.809,4.022-5.85,6.006c-0.021-0.019-0.044-0.037-0.066-0.055c-1.143-0.944-2.31-1.906-3.514-2.891  c-1.632-1.587-3.187-3.104-4.663-4.623c-1.8-1.853-3.564-3.728-5.327-5.6c-2.491-2.646-5.067-5.382-7.731-8.046  c-1.761-1.761-3.541-3.503-5.323-5.247c-2.618-2.561-5.324-5.21-7.89-7.85c-3.26-3.356-7.023-7.271-10.79-11.408  c1.007-0.682,2.015-1.377,3.018-2.111c5.013-3.668,9.294-7.898,13.434-11.989l0.448-0.443c4.188-4.137,8.517-8.414,12.048-13.715  c3.805-5.711,6.04-11.923,7.889-17.786c1.47-4.666,3.393-11.789,3.118-19.742c-0.16-4.635-3.485-8.552-8.033-9.461  c-4.917-0.983-9.752-1.184-14.429-1.376c-0.873-0.036-1.746-0.072-2.618-0.113c-1.178-0.057-2.358-0.099-3.539-0.141  c-3.814-0.136-7.419-0.265-10.54-0.889c-0.238-0.048-0.479-0.087-0.721-0.117c-5.968-0.746-11.312-1.147-16.34-1.227  c-2.777-0.043-5.533-0.04-8.197-0.041c-2.406-0.002-4.798,0.002-7.182-0.03c-3.221-0.044-6.628-0.545-10.235-1.076  c-1.279-0.188-2.561-0.376-3.845-0.547c-0.184-0.024-0.368-0.044-0.554-0.059c-5.979-0.459-11.668,0.042-17.17,0.526  c-1.31,0.115-2.618,0.23-3.924,0.331c-2.481,0.191-4.806,0.359-7.045,0.472c0.215-2.726,0.34-5.373,0.434-7.932  c0.195-5.312,0.072-10.541-0.048-15.599c-0.027-1.183-0.056-2.364-0.079-3.545l-0.059-2.738c-0.116-5.304-0.226-10.314-0.055-15.284  c0.118-3.467,0.33-6.577,0.646-9.439c1.029,0.015,2.087,0.049,3.189,0.083c1.676,0.053,3.409,0.108,5.282,0.108  c0.169,0,0.338-0.004,0.508-0.013c3.071-0.156,6.205-0.132,9.524-0.107c2.604,0.02,5.299,0.04,8.033-0.031  c1.458-0.038,2.917-0.08,4.376-0.121c4.352-0.124,8.852-0.252,13.229-0.282c1.742-0.012,3.485-0.029,5.229-0.046  c4.087-0.039,8.314-0.081,12.433-0.049c3.352,0.025,6.808,0.118,10.15,0.207c2.52,0.067,5.038,0.135,7.558,0.177  c2.626,0.044,5.252,0.072,7.879,0.1c3.295,0.035,6.591,0.069,9.886,0.138c3.066,0.064,6.132,0.108,9.197,0.152  c2.871,0.041,5.741,0.082,8.612,0.14c3.316,0.067,6.638,0.068,9.85,0.069c2.671,0.001,5.341,0.001,8.011,0.04  c2.574,0.037,5.131,0.136,7.839,0.24c3.271,0.126,6.653,0.257,10.066,0.269c3.673,0.01,7.295-0.089,10.811-0.188  c2.384-0.067,4.767-0.134,7.147-0.165c4.555-0.057,8.582-0.13,12.317-0.225c1.35,2.307,1.607,3.557,1.607,4.176  C238.254,269.439,238.104,272.951,237.943,276.668z"/></svg>